<?xml version="1.0" standalone="no"?>
<!DOCTYPE svg PUBLIC "-//W3C//DTD SVG 20010904//EN"
 "http://www.w3.org/TR/2001/REC-SVG-20010904/DTD/svg10.dtd">
<svg version="1.0" xmlns="http://www.w3.org/2000/svg"
 width="231.000000pt" height="231.000000pt" viewBox="0 0 231.000000 231.000000"
 preserveAspectRatio="xMidYMid meet">
<metadata>
Created by potrace 1.14, written by Peter Selinger 2001-2017
</metadata>
<g transform="translate(0.000000,231.000000) scale(0.100000,-0.100000)"
fill="#000000" stroke="none">
<path d="M1538 2264 c-2 -1 -15 -5 -28 -7 -14 -3 -41 -8 -60 -12 -19 -3 -42
-7 -50 -9 -8 -1 -41 -8 -72 -15 -32 -7 -62 -10 -67 -7 -5 4 -11 2 -13 -3 -1
-5 -21 -11 -43 -14 -35 -5 -213 -40 -270 -53 -51 -12 -163 -35 -195 -40 -19
-3 -39 -10 -44 -14 -5 -5 -14 -6 -20 -4 -7 3 -26 -1 -42 -7 -16 -7 -40 -13
-54 -14 -14 -1 -27 -3 -30 -4 -3 -2 -16 -5 -30 -6 -14 -2 -43 -8 -64 -14 -22
-5 -44 -8 -48 -5 -4 3 -8 1 -8 -4 0 -5 -19 -13 -42 -17 -62 -11 -62 -11 -102
-30 -20 -10 -38 -27 -41 -39 -9 -35 5 -153 24 -198 6 -16 9 -28 6 -28 -2 0 2
-19 11 -41 8 -23 17 -54 20 -68 9 -44 9 -46 18 -59 4 -7 6 -16 3 -18 -3 -3 4
-29 15 -57 10 -29 21 -61 23 -72 3 -11 17 -30 32 -42 23 -19 36 -21 92 -17 70
4 126 11 126 14 0 1 14 3 31 5 17 1 36 5 41 8 7 5 11 -16 11 -58 0 -36 -4 -65
-9 -65 -6 0 -6 -8 0 -19 6 -10 7 -21 4 -25 -4 -4 -9 -53 -11 -109 -2 -56 -8
-109 -12 -116 -4 -8 -4 -25 1 -38 5 -14 5 -23 -1 -23 -6 0 -6 -9 -1 -23 5 -13
11 -36 12 -53 8 -65 77 -97 197 -90 23 1 42 -1 42 -5 0 -4 13 -4 29 1 16 4 32
6 34 4 8 -8 -4 -44 -14 -44 -5 0 -9 -9 -9 -21 0 -11 -9 -34 -21 -50 -11 -16
-17 -33 -14 -39 3 -5 2 -10 -3 -10 -13 0 -62 -113 -64 -150 0 -8 -5 -20 -10
-27 -5 -7 -7 -20 -4 -30 3 -10 8 -33 11 -51 3 -18 10 -41 17 -51 12 -19 135
-77 145 -68 3 3 12 -1 21 -9 8 -9 23 -13 33 -11 10 3 20 -2 23 -10 4 -8 13
-13 21 -9 8 3 17 1 20 -4 4 -6 15 -10 26 -10 11 0 37 -9 58 -20 21 -10 40 -17
43 -15 2 3 27 -4 55 -15 28 -10 53 -16 57 -13 3 4 6 1 6 -6 0 -8 8 -11 20 -8
11 3 20 1 20 -5 0 -5 5 -6 10 -3 6 3 16 3 23 -2 6 -4 21 -9 32 -10 78 -10 95
-10 95 -2 0 5 7 9 16 9 21 0 66 51 59 67 -2 7 2 13 10 13 9 0 12 6 9 15 -4 8
-1 15 5 15 6 0 11 9 11 19 0 11 6 26 13 33 8 7 12 19 9 26 -2 6 1 12 7 12 6 0
10 3 9 8 -1 4 7 27 18 52 10 25 18 48 16 52 -1 5 2 8 8 8 5 0 6 7 3 17 -4 10
-2 14 4 10 10 -7 30 46 25 66 -1 4 5 7 14 7 8 0 13 4 10 9 -3 5 8 40 25 78 17
37 33 77 35 87 2 11 9 23 15 26 6 4 10 10 10 14 -1 3 0 8 0 11 1 3 2 8 3 13 3
10 26 63 41 92 7 14 20 49 29 78 10 28 22 52 28 52 6 0 8 7 4 15 -3 8 -1 15 3
15 5 0 12 7 15 16 4 10 2 13 -7 8 -7 -5 -6 -1 3 10 8 10 15 25 16 34 2 8 9 19
16 23 7 5 10 9 5 9 -4 0 -1 12 6 28 8 15 12 33 10 40 -3 6 0 12 5 12 12 0 26
34 27 65 0 11 4 25 8 31 7 13 3 72 -8 117 -6 21 -10 25 -16 15 -7 -10 -9 -9
-9 5 0 10 -8 17 -19 17 -11 0 -22 4 -25 9 -5 8 -64 25 -78 22 -5 0 -8 4 -8 11
0 6 -3 9 -6 5 -4 -3 -22 0 -40 8 -19 8 -34 11 -34 8 0 -3 -7 0 -15 7 -8 7 -15
10 -15 7 0 -3 -20 1 -45 9 -25 7 -45 10 -45 7 0 -3 -6 0 -13 6 -8 6 -22 12
-33 14 -10 1 -25 6 -31 10 -7 5 -17 6 -22 2 -5 -3 -12 -1 -16 5 -4 6 -10 8
-14 6 -4 -3 -13 0 -21 5 -13 8 -12 11 3 24 11 7 25 11 33 8 8 -3 22 -2 32 2
20 9 27 11 66 19 16 3 32 9 35 13 3 4 14 9 24 11 35 6 81 70 67 92 -5 8 -4 22
1 32 5 10 6 18 2 18 -4 0 -9 15 -10 33 -1 17 -9 50 -19 72 -10 22 -17 46 -15
53 1 6 -3 12 -9 12 -5 0 -9 3 -8 8 1 4 -4 23 -11 42 -8 19 -15 41 -17 49 -1 8
-9 18 -16 22 -7 5 -10 9 -6 9 4 0 -1 17 -11 38 -11 20 -29 58 -40 84 -12 26
-30 52 -40 58 -19 10 -97 21 -103 14z"/>
</g>
</svg>
